<svg width="32" height="32" viewBox="0 0 32 32" fill="none" xmlns="http://www.w3.org/2000/svg">
<path d="M18.7014 10.7137L7.5014 21.7137C7.31436 21.8977 7.06251 22.0008 6.80015 22.0008C6.53779 22.0008 6.28594 21.8977 6.0989 21.7137L1.2989 17C1.20525 16.9079 1.13066 16.7983 1.07938 16.6773C1.0281 16.5564 1.00114 16.4266 1.00004 16.2953C0.998933 16.1639 1.02371 16.0337 1.07295 15.9119C1.12219 15.7901 1.19493 15.6793 1.28702 15.5856C1.37911 15.492 1.48875 15.4174 1.60966 15.3661C1.73058 15.3148 1.86042 15.2879 1.99175 15.2867C2.12309 15.2856 2.25336 15.3104 2.37512 15.3597C2.49688 15.4089 2.60775 15.4816 2.7014 15.5737L6.80015 19.5987L17.3001 9.28624C17.4894 9.10025 17.7449 8.99709 18.0102 8.99943C18.1416 9.00059 18.2715 9.02762 18.3925 9.07898C18.5134 9.13033 18.6231 9.20501 18.7151 9.29874C18.8072 9.39247 18.88 9.50342 18.9292 9.62526C18.9784 9.74709 19.0031 9.87743 19.002 10.0088C19.0008 10.1402 18.9738 10.2701 18.9224 10.391C18.8711 10.512 18.7964 10.6216 18.7026 10.7137H18.7014ZM30.7139 9.29874C30.6219 9.20494 30.5122 9.1302 30.3913 9.0788C30.2703 9.0274 30.1404 9.00035 30.009 8.99918C29.8776 8.99802 29.7472 9.02278 29.6254 9.07203C29.5035 9.12129 29.3926 9.19408 29.2989 9.28624L18.7989 19.5987L16.4451 17.2862C16.2559 17.1004 16.0005 16.9974 15.7352 16.9999C15.47 17.0023 15.2166 17.1101 15.0308 17.2994C14.845 17.4887 14.7419 17.744 14.7444 18.0093C14.7469 18.2745 14.8546 18.5279 15.0439 18.7137L18.0976 21.7137C18.2847 21.8977 18.5365 22.0008 18.7989 22.0008C19.0613 22.0008 19.3131 21.8977 19.5001 21.7137L30.7001 10.7137C30.794 10.6218 30.8689 10.5122 30.9204 10.3913C30.9719 10.2704 30.9991 10.1405 31.0003 10.0091C31.0016 9.87767 30.977 9.74729 30.9278 9.6254C30.8787 9.50351 30.806 9.39251 30.7139 9.29874Z" fill="#1A1A1A"/>
</svg>
