<svg width="228" height="60" viewBox="0 0 228 60" fill="none" xmlns="http://www.w3.org/2000/svg">
<g filter="url(#filter0_d_504_47)">
<path d="M7.37 47V21.73H13.45V47H7.37ZM3.798 32.142V26.822H17.364V32.142H3.798ZM28.1011 47.342C26.4037 47.342 24.8837 46.8987 23.5411 46.012C22.2237 45.1 21.1724 43.8587 20.3871 42.288C19.6017 40.692 19.2091 38.8933 19.2091 36.892C19.2091 34.84 19.6017 33.0287 20.3871 31.458C21.1724 29.8873 22.2491 28.6587 23.6171 27.772C24.9851 26.86 26.5431 26.404 28.2911 26.404C29.2537 26.404 30.1277 26.5433 30.9131 26.822C31.7237 27.1007 32.4331 27.4933 33.0411 28C33.6491 28.4813 34.1684 29.0513 34.5991 29.71C35.0297 30.3433 35.3464 31.0273 35.5491 31.762L34.2951 31.61V26.822H40.3371V47H34.1811V42.136L35.5491 42.098C35.3464 42.8073 35.0171 43.4787 34.5611 44.112C34.1051 44.7453 33.5477 45.3027 32.8891 45.784C32.2304 46.2653 31.4957 46.6453 30.6851 46.924C29.8744 47.2027 29.0131 47.342 28.1011 47.342ZM29.7731 42.212C30.7104 42.212 31.5211 41.9967 32.2051 41.566C32.8891 41.1353 33.4211 40.5273 33.8011 39.742C34.1811 38.9313 34.3711 37.9813 34.3711 36.892C34.3711 35.8027 34.1811 34.8653 33.8011 34.08C33.4211 33.2693 32.8891 32.6487 32.2051 32.218C31.5211 31.762 30.7104 31.534 29.7731 31.534C28.8611 31.534 28.0631 31.762 27.3791 32.218C26.7204 32.6487 26.2011 33.2693 25.8211 34.08C25.4411 34.8653 25.2511 35.8027 25.2511 36.892C25.2511 37.9813 25.4411 38.9313 25.8211 39.742C26.2011 40.5273 26.7204 41.1353 27.3791 41.566C28.0631 41.9967 28.8611 42.212 29.7731 42.212ZM52.5039 47.38C50.5279 47.38 48.7799 47.0633 47.2599 46.43C45.7652 45.7967 44.5746 44.948 43.6879 43.884L47.3739 40.692C48.1592 41.4773 49.0459 42.06 50.0339 42.44C51.0219 42.7947 51.9592 42.972 52.8459 42.972C53.2006 42.972 53.5172 42.934 53.7959 42.858C54.0746 42.782 54.3026 42.6807 54.4799 42.554C54.6826 42.402 54.8346 42.2373 54.9359 42.06C55.0372 41.8573 55.0879 41.6293 55.0879 41.376C55.0879 40.8693 54.8599 40.4767 54.4039 40.198C54.1759 40.0713 53.7959 39.9193 53.2639 39.742C52.7319 39.5647 52.0479 39.362 51.2119 39.134C50.0212 38.83 48.9826 38.4753 48.0959 38.07C47.2346 37.6393 46.5252 37.1453 45.9679 36.588C45.4612 36.056 45.0686 35.4733 44.7899 34.84C44.5112 34.1813 44.3719 33.4467 44.3719 32.636C44.3719 31.6987 44.5872 30.85 45.0179 30.09C45.4739 29.33 46.0692 28.6713 46.8039 28.114C47.5639 27.5567 48.4252 27.1387 49.3879 26.86C50.3759 26.556 51.3892 26.404 52.4279 26.404C53.5426 26.404 54.6066 26.5307 55.6199 26.784C56.6332 27.0373 57.5706 27.392 58.4319 27.848C59.3186 28.304 60.1039 28.8487 60.7879 29.482L57.5959 33.054C57.1399 32.6233 56.6206 32.2433 56.0379 31.914C55.4806 31.5593 54.8979 31.2807 54.2899 31.078C53.6819 30.8753 53.1246 30.774 52.6179 30.774C52.2379 30.774 51.8959 30.812 51.5919 30.888C51.3132 30.9387 51.0726 31.04 50.8699 31.192C50.6672 31.3187 50.5152 31.4833 50.4139 31.686C50.3126 31.8633 50.2619 32.0787 50.2619 32.332C50.2619 32.5853 50.3252 32.826 50.4519 33.054C50.6039 33.282 50.8066 33.472 51.0599 33.624C51.3132 33.776 51.7186 33.9533 52.2759 34.156C52.8332 34.3333 53.5932 34.5613 54.5559 34.84C55.7466 35.1693 56.7726 35.5367 57.6339 35.942C58.4952 36.3473 59.1792 36.8287 59.6859 37.386C60.0912 37.8167 60.3952 38.3233 60.5979 38.906C60.8006 39.4633 60.9019 40.0713 60.9019 40.73C60.9019 42.022 60.5346 43.1747 59.7999 44.188C59.0906 45.176 58.1026 45.9613 56.8359 46.544C55.5692 47.1013 54.1252 47.38 52.5039 47.38ZM70.3684 41.072L68.1264 36.512L77.5504 26.822H85.5684L70.3684 41.072ZM64.5164 47V18.88H70.5964V47H64.5164ZM78.1964 47L71.0904 37.804L75.3844 34.46L85.3784 47H78.1964ZM100.24 47.418C99.3279 47.418 98.4539 47.2913 97.6179 47.038C96.7819 46.7847 96.0219 46.4427 95.3379 46.012C94.6793 45.5813 94.1219 45.0873 93.6659 44.53C93.2353 43.9473 92.9439 43.352 92.7919 42.744L94.1219 42.288L93.7799 46.962H88.1179V18.88H94.2359V31.648L92.9819 31.192C93.1339 30.5333 93.4253 29.9253 93.8559 29.368C94.2866 28.7853 94.8313 28.2787 95.4899 27.848C96.1486 27.392 96.8706 27.0373 97.6559 26.784C98.4413 26.5307 99.2519 26.404 100.088 26.404C101.836 26.404 103.381 26.86 104.724 27.772C106.092 28.6587 107.169 29.9 107.954 31.496C108.739 33.0667 109.132 34.8653 109.132 36.892C109.132 38.944 108.739 40.768 107.954 42.364C107.194 43.9347 106.143 45.176 104.8 46.088C103.457 46.9747 101.937 47.418 100.24 47.418ZM98.6439 42.288C99.5559 42.288 100.354 42.06 101.038 41.604C101.722 41.148 102.241 40.5273 102.596 39.742C102.976 38.9313 103.166 37.9813 103.166 36.892C103.166 35.828 102.976 34.8907 102.596 34.08C102.241 33.2693 101.722 32.6487 101.038 32.218C100.354 31.7873 99.5559 31.572 98.6439 31.572C97.7066 31.572 96.8959 31.7873 96.2119 32.218C95.5279 32.6487 94.9959 33.2693 94.6159 34.08C94.2359 34.8907 94.0459 35.828 94.0459 36.892C94.0459 37.9813 94.2359 38.9313 94.6159 39.742C94.9959 40.5273 95.5279 41.148 96.2119 41.604C96.8959 42.06 97.7066 42.288 98.6439 42.288ZM122.63 47.38C120.527 47.38 118.652 46.924 117.006 46.012C115.384 45.1 114.092 43.8587 113.13 42.288C112.192 40.7173 111.724 38.9187 111.724 36.892C111.724 34.8653 112.192 33.0667 113.13 31.496C114.092 29.9253 115.384 28.684 117.006 27.772C118.652 26.86 120.527 26.404 122.63 26.404C124.732 26.404 126.594 26.86 128.216 27.772C129.862 28.684 131.154 29.9253 132.092 31.496C133.029 33.0667 133.498 34.8653 133.498 36.892C133.498 38.9187 133.029 40.7173 132.092 42.288C131.154 43.8587 129.862 45.1 128.216 46.012C126.594 46.924 124.732 47.38 122.63 47.38ZM122.63 42.136C123.542 42.136 124.352 41.908 125.062 41.452C125.771 40.996 126.328 40.3753 126.734 39.59C127.139 38.8047 127.329 37.9053 127.304 36.892C127.329 35.8787 127.139 34.9793 126.734 34.194C126.328 33.3833 125.771 32.75 125.062 32.294C124.352 31.838 123.542 31.61 122.63 31.61C121.718 31.61 120.894 31.838 120.16 32.294C119.45 32.75 118.893 33.3833 118.488 34.194C118.082 34.9793 117.892 35.8787 117.918 36.892C117.892 37.9053 118.082 38.8047 118.488 39.59C118.893 40.3753 119.45 40.996 120.16 41.452C120.894 41.908 121.718 42.136 122.63 42.136ZM144.921 47.342C143.224 47.342 141.704 46.8987 140.361 46.012C139.044 45.1 137.993 43.8587 137.207 42.288C136.422 40.692 136.029 38.8933 136.029 36.892C136.029 34.84 136.422 33.0287 137.207 31.458C137.993 29.8873 139.069 28.6587 140.437 27.772C141.805 26.86 143.363 26.404 145.111 26.404C146.074 26.404 146.948 26.5433 147.733 26.822C148.544 27.1007 149.253 27.4933 149.861 28C150.469 28.4813 150.989 29.0513 151.419 29.71C151.85 30.3433 152.167 31.0273 152.369 31.762L151.115 31.61V26.822H157.157V47H151.001V42.136L152.369 42.098C152.167 42.8073 151.837 43.4787 151.381 44.112C150.925 44.7453 150.368 45.3027 149.709 45.784C149.051 46.2653 148.316 46.6453 147.505 46.924C146.695 47.2027 145.833 47.342 144.921 47.342ZM146.593 42.212C147.531 42.212 148.341 41.9967 149.025 41.566C149.709 41.1353 150.241 40.5273 150.621 39.742C151.001 38.9313 151.191 37.9813 151.191 36.892C151.191 35.8027 151.001 34.8653 150.621 34.08C150.241 33.2693 149.709 32.6487 149.025 32.218C148.341 31.762 147.531 31.534 146.593 31.534C145.681 31.534 144.883 31.762 144.199 32.218C143.541 32.6487 143.021 33.2693 142.641 34.08C142.261 34.8653 142.071 35.8027 142.071 36.892C142.071 37.9813 142.261 38.9313 142.641 39.742C143.021 40.5273 143.541 41.1353 144.199 41.566C144.883 41.9967 145.681 42.212 146.593 42.212ZM162.522 47V26.822H168.298L168.564 33.396L167.424 32.142C167.728 31.0527 168.222 30.0773 168.906 29.216C169.616 28.3547 170.439 27.6707 171.376 27.164C172.314 26.6573 173.314 26.404 174.378 26.404C174.834 26.404 175.252 26.442 175.632 26.518C176.038 26.594 176.405 26.6827 176.734 26.784L175.062 33.51C174.784 33.3327 174.404 33.1933 173.922 33.092C173.466 32.9653 172.985 32.902 172.478 32.902C171.921 32.902 171.402 33.0033 170.92 33.206C170.439 33.3833 170.034 33.6493 169.704 34.004C169.375 34.3587 169.109 34.7767 168.906 35.258C168.729 35.7393 168.64 36.284 168.64 36.892V47H162.522ZM186.6 47.418C184.852 47.418 183.294 46.9747 181.926 46.088C180.583 45.176 179.519 43.9347 178.734 42.364C177.948 40.768 177.556 38.9567 177.556 36.93C177.556 34.9033 177.948 33.1047 178.734 31.534C179.519 29.938 180.596 28.684 181.964 27.772C183.332 26.86 184.902 26.404 186.676 26.404C187.588 26.404 188.462 26.5433 189.298 26.822C190.134 27.1007 190.894 27.4807 191.578 27.962C192.262 28.4433 192.819 29.0007 193.25 29.634C193.68 30.242 193.934 30.8753 194.01 31.534L192.566 31.876V18.88H198.684V47H193.022L192.68 42.402L193.896 42.592C193.82 43.2253 193.566 43.8333 193.136 44.416C192.73 44.9987 192.198 45.518 191.54 45.974C190.881 46.4047 190.121 46.7467 189.26 47C188.424 47.2787 187.537 47.418 186.6 47.418ZM188.158 42.364C189.095 42.364 189.906 42.136 190.59 41.68C191.274 41.224 191.793 40.5907 192.148 39.78C192.528 38.9693 192.718 38.0193 192.718 36.93C192.718 35.8153 192.528 34.8527 192.148 34.042C191.793 33.2313 191.274 32.598 190.59 32.142C189.906 31.686 189.095 31.458 188.158 31.458C187.22 31.458 186.41 31.686 185.726 32.142C185.067 32.598 184.548 33.2313 184.168 34.042C183.788 34.8527 183.598 35.8153 183.598 36.93C183.598 38.0193 183.788 38.9693 184.168 39.78C184.548 40.5907 185.067 41.224 185.726 41.68C186.41 42.136 187.22 42.364 188.158 42.364Z" fill="white"/>
</g>
<path d="M203.862 29.982V24.358H222.9V29.982H203.862ZM210.36 36.556V17.898H216.402V36.556H210.36Z" fill="#FF9CEF"/>
<defs>
<filter id="filter0_d_504_47" x="0.225684" y="13.5214" width="212.748" height="46.4001" filterUnits="userSpaceOnUse" color-interpolation-filters="sRGB">
<feFlood flood-opacity="0" result="BackgroundImageFix"/>
<feColorMatrix in="SourceAlpha" type="matrix" values="0 0 0 0 0 0 0 0 0 0 0 0 0 0 0 0 0 0 127 0" result="hardAlpha"/>
<feOffset dx="5.35862" dy="3.57241"/>
<feGaussianBlur stdDeviation="4.46551"/>
<feComposite in2="hardAlpha" operator="out"/>
<feColorMatrix type="matrix" values="0 0 0 0 0 0 0 0 0 0 0 0 0 0 0 0 0 0 0.4 0"/>
<feBlend mode="normal" in2="BackgroundImageFix" result="effect1_dropShadow_504_47"/>
<feBlend mode="normal" in="SourceGraphic" in2="effect1_dropShadow_504_47" result="shape"/>
</filter>
</defs>
</svg>
